<svg width="50" height="50" viewBox="0 0 50 50" fill="none" xmlns="http://www.w3.org/2000/svg">
<path d="M47.4835 26.1425L36.869 22.4685V9.71396V9.30296C36.869 8.98346 36.666 8.69896 36.364 8.59446L25.245 4.74596C25.086 4.69096 24.9135 4.69096 24.7545 4.74596L13.6355 8.59446C13.3335 8.69896 13.131 8.98346 13.131 9.30296V9.71396V22.4685L2.51604 26.1425C2.21404 26.247 2.01154 26.531 2.01154 26.8505V27.2615V40.286V40.697C2.01154 41.0175 2.21404 41.3015 2.51604 41.406L13.635 45.2545C13.638 45.2555 13.6415 45.2545 13.6445 45.2555C13.721 45.281 13.8005 45.2955 13.8805 45.2955C13.9605 45.2955 14.04 45.281 14.1165 45.2555C14.1195 45.2545 14.1225 45.2555 14.126 45.2545L25 41.491L35.8735 45.2545C35.8775 45.2555 35.8805 45.2545 35.8835 45.2555C35.9595 45.281 36.039 45.2955 36.12 45.2955C36.2 45.2955 36.279 45.281 36.3555 45.2555C36.3585 45.2545 36.3625 45.2555 36.3655 45.2545L47.4845 41.406C47.7865 41.3015 47.9895 41.0175 47.9895 40.697V40.286V27.2615V26.8505C47.9885 26.5315 47.785 26.247 47.4835 26.1425ZM36.119 30.3165L26.912 27.13L28.7205 26.504L37.6705 29.7795L36.119 30.3165ZM13.8805 30.3165L12.3285 29.7795L21.279 26.504L23.0875 27.13L13.8805 30.3165ZM17.4085 8.87546C17.4365 8.88996 17.4635 8.90596 17.494 8.91696L26.552 12.2315L25 12.769L15.58 9.50846L17.4085 8.87546ZM21.757 7.37046C21.7605 7.37146 21.7635 7.37396 21.767 7.37496L31.0245 10.6315L28.7255 11.4295L19.6375 8.10396L21.757 7.37046ZM39.8445 28.9775L30.9635 25.7275L33.0855 24.9935L42.144 28.18L39.8445 28.9775ZM10.1545 28.9775L7.85504 28.1795L16.9135 24.993L19.0355 25.727L10.1545 28.9775ZM24.25 25.798L14.631 22.4685V10.7675L24.25 14.0965V25.798ZM35.369 22.4685L25.75 25.798V14.0965L27.956 13.333V17.79C27.956 18.1025 28.1505 18.383 28.4425 18.492C28.5285 18.524 28.6175 18.54 28.706 18.54C28.918 18.54 29.125 18.45 29.2705 18.284L31.119 16.1705L32.824 16.658C33.0505 16.7225 33.2935 16.6775 33.481 16.5355C33.6685 16.394 33.78 16.172 33.78 15.937V11.3175L35.369 10.7675V22.4685ZM29.456 12.8135L32.28 11.8365V14.9425L31.074 14.598C30.7955 14.519 30.495 14.607 30.3035 14.825L29.456 15.794V12.8135ZM13.6675 23.87L14.635 24.205L5.50254 27.417L4.46054 27.0565L13.6675 23.87ZM6.60004 29.384L9.42404 30.3615V33.342L8.57654 32.373C8.43204 32.208 8.22504 32.117 8.01204 32.117C7.94354 32.117 7.87404 32.126 7.80604 32.1455L6.60004 32.49V29.384ZM40.575 30.3615L43.399 29.385V32.4905L42.193 32.146C41.9135 32.067 41.614 32.155 41.4225 32.3735L40.575 33.3425V30.3615ZM44.497 27.417L35.3645 24.205L36.3325 23.87L45.5395 27.057L44.497 27.417ZM25 6.24846L34.42 9.50896L33.378 9.86996L24.034 6.58296L25 6.24846ZM3.51154 28.3155L5.10004 28.8655V33.4845C5.10004 33.72 5.21054 33.9415 5.39854 34.083C5.58654 34.2245 5.83004 34.2695 6.05604 34.206L7.76104 33.7185L9.60954 35.832C9.75504 35.998 9.96204 36.088 10.174 36.088C10.2625 36.088 10.3515 36.0725 10.4375 36.04C10.73 35.9295 10.924 35.6505 10.924 35.338V30.881L13.1305 31.6445V43.493L3.51154 40.164V28.3155ZM14.6305 31.6445L24.25 28.3155V40.164L14.631 43.493V31.6445H14.6305ZM25.75 28.3155L35.369 31.6445V43.493L25.75 40.164V28.3155ZM46.4885 40.163L36.8695 43.493V31.6445L39.0755 30.881V35.338C39.0755 35.6505 39.27 35.93 39.562 36.04C39.648 36.072 39.737 36.088 39.8255 36.088C40.0375 36.088 40.2445 35.998 40.39 35.832L42.2385 33.7185L43.9435 34.206C44.17 34.2695 44.413 34.2245 44.6005 34.083C44.789 33.9415 44.8995 33.7195 44.8995 33.4845V28.865L46.4885 28.315V40.163Z" fill="#005CCE"/>
</svg>
